<mxfile host="app.diagrams.net" modified="2021-05-27T11:54:38.623Z" agent="5.0 (X11; Linux x86_64) AppleWebKit/537.36 (KHTML, like Gecko) Chrome/91.0.4472.77 Safari/537.36" etag="wQO87X2YTyBoD7do9Z68" version="14.7.1" type="github">
  <diagram id="IH4zY5asgSpdTbL2U8yz" name="Page-1">
    <mxGraphModel dx="1416" dy="797" grid="1" gridSize="10" guides="1" tooltips="1" connect="1" arrows="1" fold="1" page="1" pageScale="1" pageWidth="850" pageHeight="1100" math="0" shadow="0">
      <root>
        <mxCell id="0" />
        <mxCell id="1" parent="0" />
        <mxCell id="tefMZ0r-ZjxjYCsN4_kW-16" value="" style="rounded=0;whiteSpace=wrap;html=1;" vertex="1" parent="1">
          <mxGeometry width="850" height="530" as="geometry" />
        </mxCell>
        <mxCell id="tefMZ0r-ZjxjYCsN4_kW-2" value="" style="rounded=0;whiteSpace=wrap;html=1;" vertex="1" parent="1">
          <mxGeometry x="40" y="40" width="240" height="470" as="geometry" />
        </mxCell>
        <mxCell id="tefMZ0r-ZjxjYCsN4_kW-3" value="ID: 4&lt;br&gt;IDX: 4" style="rounded=1;whiteSpace=wrap;html=1;fillColor=#f8cecc;strokeColor=#b85450;" vertex="1" parent="1">
          <mxGeometry x="50" y="60" width="220" height="90" as="geometry" />
        </mxCell>
        <mxCell id="tefMZ0r-ZjxjYCsN4_kW-4" value="ID: 3&lt;br&gt;IDX: 3" style="rounded=1;whiteSpace=wrap;html=1;fillColor=#fff2cc;strokeColor=#d6b656;" vertex="1" parent="1">
          <mxGeometry x="50" y="170" width="220" height="90" as="geometry" />
        </mxCell>
        <mxCell id="tefMZ0r-ZjxjYCsN4_kW-5" value="ID: 2&lt;br&gt;IDX: 2" style="rounded=1;whiteSpace=wrap;html=1;fillColor=#d5e8d4;strokeColor=#82b366;" vertex="1" parent="1">
          <mxGeometry x="50" y="280" width="220" height="90" as="geometry" />
        </mxCell>
        <mxCell id="tefMZ0r-ZjxjYCsN4_kW-6" value="ID: 1&lt;br&gt;IDX: 1" style="rounded=1;whiteSpace=wrap;html=1;fillColor=#e1d5e7;strokeColor=#9673a6;" vertex="1" parent="1">
          <mxGeometry x="50" y="390" width="220" height="90" as="geometry" />
        </mxCell>
        <mxCell id="tefMZ0r-ZjxjYCsN4_kW-7" value="" style="rounded=0;whiteSpace=wrap;html=1;" vertex="1" parent="1">
          <mxGeometry x="400" y="40" width="240" height="470" as="geometry" />
        </mxCell>
        <mxCell id="tefMZ0r-ZjxjYCsN4_kW-8" value="ID: 1&lt;br&gt;IDX: 4" style="rounded=1;whiteSpace=wrap;html=1;fillColor=#e1d5e7;strokeColor=#9673a6;" vertex="1" parent="1">
          <mxGeometry x="410" y="60" width="220" height="90" as="geometry" />
        </mxCell>
        <mxCell id="tefMZ0r-ZjxjYCsN4_kW-9" value="&lt;span&gt;ID4&lt;br&gt;IDX: 3&lt;/span&gt;" style="rounded=1;whiteSpace=wrap;html=1;fillColor=#f8cecc;strokeColor=#b85450;" vertex="1" parent="1">
          <mxGeometry x="410" y="170" width="220" height="90" as="geometry" />
        </mxCell>
        <mxCell id="tefMZ0r-ZjxjYCsN4_kW-10" value="&lt;span&gt;ID: 3&lt;br&gt;IDX: 2&lt;/span&gt;" style="rounded=1;whiteSpace=wrap;html=1;fillColor=#fff2cc;strokeColor=#d6b656;" vertex="1" parent="1">
          <mxGeometry x="410" y="280" width="220" height="90" as="geometry" />
        </mxCell>
        <mxCell id="tefMZ0r-ZjxjYCsN4_kW-11" value="&lt;span&gt;ID: 2&lt;br&gt;IDX: 1&lt;/span&gt;" style="rounded=1;whiteSpace=wrap;html=1;fillColor=#d5e8d4;strokeColor=#82b366;" vertex="1" parent="1">
          <mxGeometry x="410" y="390" width="220" height="90" as="geometry" />
        </mxCell>
        <mxCell id="tefMZ0r-ZjxjYCsN4_kW-13" style="rounded=0;orthogonalLoop=1;jettySize=auto;html=1;exitX=1;exitY=0.5;exitDx=0;exitDy=0;entryX=0;entryY=0.5;entryDx=0;entryDy=0;" edge="1" parent="1" source="tefMZ0r-ZjxjYCsN4_kW-6" target="tefMZ0r-ZjxjYCsN4_kW-8">
          <mxGeometry relative="1" as="geometry" />
        </mxCell>
        <mxCell id="tefMZ0r-ZjxjYCsN4_kW-15" value="&lt;div style=&quot;text-align: left&quot;&gt;&lt;span&gt;&amp;nbsp; {&lt;/span&gt;&lt;/div&gt;&lt;div style=&quot;text-align: left&quot;&gt;&lt;span&gt;&amp;nbsp; &amp;nbsp; &quot;cardID&quot;: 1,&lt;/span&gt;&lt;/div&gt;&lt;div style=&quot;text-align: left&quot;&gt;&lt;span&gt;&amp;nbsp; &amp;nbsp; &amp;nbsp;&quot;&lt;/span&gt;&lt;span&gt;aboveOfIdx&lt;/span&gt;&lt;span&gt;&quot;: 3&lt;/span&gt;&lt;/div&gt;&lt;div style=&quot;text-align: left&quot;&gt;&lt;span&gt;&amp;nbsp; }&lt;br&gt;&amp;nbsp; // move card index 1 to&amp;nbsp; &amp;nbsp; above index 3&amp;nbsp;&lt;/span&gt;&lt;/div&gt;" style="rounded=1;whiteSpace=wrap;html=1;" vertex="1" parent="1">
          <mxGeometry x="680" y="40" width="140" height="160" as="geometry" />
        </mxCell>
      </root>
    </mxGraphModel>
  </diagram>
</mxfile>
